<?xml version="1.0" encoding="UTF-8"?>
<svg width="253px" height="55px" viewBox="0 0 253 55" version="1.1" xmlns="http://www.w3.org/2000/svg" xmlns:xlink="http://www.w3.org/1999/xlink">
    <!-- Generator: Sketch 55.2 (78181) - https://sketchapp.com -->
    <title>Page 1</title>
    <desc>Created with Sketch.</desc>
    <defs>
        <polygon id="path-1" points="1.15230178e-15 45.0432876 1.15230178e-15 0.0409374557 40.8603128 0.0409374557 40.8603128 45.0432876"></polygon>
    </defs>
    <g id="Page-1" stroke="none" stroke-width="1" fill="none" fill-rule="evenodd">
        <g>
            <path d="M67.8646578,32.6819341 L68.2573498,32.1909151 C68.5843434,31.797619 68.9437615,31.7647107 69.4018022,32.0930919 C70.186237,32.7478007 72.1155738,34.0922803 74.6985479,34.0922803 C77.4452436,34.0922803 79.3740808,32.5522546 79.3740808,30.1577666 C79.3740808,24.3563486 67.9303563,25.7332856 67.9303563,18.5869873 C67.9303563,14.8171651 71.1021686,12.4237289 75.1236145,12.4237289 C77.8703102,12.4237289 79.8648959,13.5710596 80.7150791,14.2268202 C81.1073214,14.5217923 81.1724703,14.8825308 80.9112252,15.308685 L80.617006,15.8332635 C80.3222871,16.3247834 79.8977201,16.3247834 79.4726035,16.0628198 C78.654795,15.5054332 77.1510244,14.5876589 75.0584157,14.5876589 C72.4426672,14.5876589 70.2519854,16.0298113 70.2519854,18.455705 C70.2519854,23.9956602 81.69566,22.520349 81.69566,29.9292621 C81.69566,33.469478 79.0799115,36.25606 74.6985479,36.25606 C71.3306394,36.25606 68.9109372,34.6172094 67.9631805,33.8298158 C67.636187,33.5012843 67.538064,33.1409966 67.8646578,32.6819341 Z" id="Fill-1" fill="#FFFFFF"></path>
            <path d="M84.8032526,20.1928345 C84.8032526,19.6684063 85.0974219,19.3734343 85.6206116,19.3734343 L86.2418244,19.3734343 C86.765014,19.3734343 87.0268586,19.6684063 87.0268586,20.1928345 L87.0268586,35.0433687 C87.0268586,35.5673961 86.765014,35.8628691 86.2418244,35.8628691 L85.6206116,35.8628691 C85.0974219,35.8628691 84.8032526,35.5673961 84.8032526,35.0433687 L84.8032526,20.1928345 Z M84.7380538,14.8171701 L84.7380538,13.6369312 C84.7380538,13.1124028 84.9994488,12.817581 85.5225385,12.817581 L86.3399474,12.817581 C86.8630371,12.817581 87.1248318,13.1124028 87.1248318,13.6369312 L87.1248318,14.8171701 C87.1248318,15.3416984 86.8630371,15.6036621 86.3399474,15.6036621 L85.5225385,15.6036621 C84.9994488,15.6036621 84.7380538,15.3416984 84.7380538,14.8171701 L84.7380538,14.8171701 Z" id="Fill-3" fill="#FFFFFF"></path>
            <path d="M91.2778345,20.1928345 C91.2778345,19.6684063 91.5719039,19.3734343 92.0951435,19.3734343 L92.6834821,19.3734343 C93.1742971,19.3734343 93.4684164,19.6684063 93.4684164,20.1928345 L93.4684164,22.0942499 C93.4684164,22.7499604 93.3375191,23.2744888 93.3375191,23.2744888 L93.4032176,23.2744888 C94.2206265,21.0451931 96.8686995,18.9802884 99.4521733,18.9802884 C102.493088,18.9802884 104.062507,20.3900836 104.519949,23.1107991 L104.585697,23.1107991 C105.501079,21.0128359 107.887857,18.9802884 110.634503,18.9802884 C114.623724,18.9802884 116.09512,21.3078079 116.09512,25.372452 L116.09512,35.0433687 C116.09512,35.5673961 115.800901,35.8628691 115.277761,35.8628691 L114.688923,35.8628691 C114.165733,35.8628691 113.871514,35.5673961 113.871514,35.0433687 L113.871514,25.9298886 C113.871514,23.2414804 113.3155,21.0128359 110.340334,21.0128359 C107.037624,21.0128359 104.814667,24.4871852 104.814667,27.8970703 L104.814667,35.0433687 C104.814667,35.5673961 104.552773,35.8628691 104.029683,35.8628691 L103.40847,35.8628691 C102.885281,35.8628691 102.591061,35.5673961 102.591061,35.0433687 L102.591061,25.9298886 C102.591061,23.4381785 102.231144,21.0128359 99.1250798,21.0128359 C95.7900955,21.0128359 93.5013406,24.5530517 93.5013406,27.8970703 L93.5013406,35.0433687 C93.5013406,35.5673961 93.2395459,35.8628691 92.7163063,35.8628691 L92.0951435,35.8628691 C91.5719039,35.8628691 91.2778345,35.5673961 91.2778345,35.0433687 L91.2778345,20.1928345 Z" id="Fill-5" fill="#FFFFFF"></path>
            <path d="M127.475644,34.25596 C130.418436,34.25596 132.805314,31.8295655 132.805314,27.633589 C132.805314,23.6023541 130.647456,21.0128208 127.606591,21.0128208 C124.859846,21.0128208 122.276971,22.9795518 122.276971,27.6665473 C122.276971,30.9782588 124.107786,34.25596 127.475644,34.25596 L127.475644,34.25596 Z M120.119114,20.1928195 C120.119114,19.6683913 120.380509,19.3734192 120.903599,19.3734192 L121.426788,19.3734192 C121.949878,19.3734192 122.211823,19.6683913 122.211823,20.1275039 L122.211823,21.3077929 C122.211823,21.9629525 122.1137,22.4221152 122.1137,22.4221152 L122.178898,22.4221152 C122.178898,22.4221152 123.585096,18.9802734 127.933685,18.9802734 C132.348372,18.9802734 135.094019,22.5203891 135.094019,27.633589 C135.094019,32.8465655 131.987905,36.2561001 127.704664,36.2561001 C123.715493,36.2561001 122.276971,32.9124822 122.276971,32.9124822 L122.211823,32.9124822 C122.211823,32.9124822 122.34217,33.5013244 122.34217,34.353683 L122.34217,41.5988563 C122.34217,42.1238355 122.048001,42.4182566 121.524811,42.4182566 L120.903599,42.4182566 C120.380509,42.4182566 120.119114,42.1238355 120.119114,41.5988563 L120.119114,20.1928195 Z" id="Fill-7" fill="#FFFFFF"></path>
            <path d="M138.300719,13.6369462 C138.300719,13.1124178 138.562514,12.817596 139.085204,12.817596 L139.706366,12.817596 C140.230106,12.817596 140.523775,13.1124178 140.523775,13.6369462 L140.523775,31.5681328 C140.523775,33.6330876 141.505405,33.8626439 142.224192,33.960467 C142.616384,33.9933753 142.911053,34.1910251 142.911053,34.6821443 L142.911053,35.1742152 C142.911053,35.6652343 142.682082,35.9936155 142.06092,35.9936155 C140.720921,35.9936155 138.300719,35.5674112 138.300719,31.9613287 L138.300719,13.6369462 Z" id="Fill-9" fill="#FFFFFF"></path>
            <path d="M157.069643,25.9952192 C156.938246,22.5203691 154.845637,20.815752 152.393561,20.815752 C149.646865,20.815752 147.259587,22.6517015 146.735948,25.9952192 L157.069643,25.9952192 Z M152.459309,18.9802534 C156.839673,18.9802534 159.324475,22.1601816 159.324475,26.8476279 C159.324475,27.3067906 158.965057,27.6665774 158.474291,27.6665774 L146.638375,27.6665774 C146.735948,31.8625539 149.614041,34.25594 153.013774,34.25594 C155.074508,34.25594 156.578878,33.3386164 157.330538,32.7478207 C157.788429,32.4533996 158.147798,32.5192662 158.409592,32.9454706 L158.671437,33.3386164 C158.899408,33.7319125 158.834709,34.1251585 158.442516,34.4195796 C157.559459,35.0763921 155.597198,36.2560801 152.949125,36.2560801 C148.044072,36.2560801 144.34967,32.7148123 144.34967,27.633569 C144.34967,22.2255473 148.011198,18.9802534 152.459309,18.9802534 L152.459309,18.9802534 Z" id="Fill-11" fill="#FFFFFF"></path>
            <path d="M161.386372,33.2398766 L161.647118,32.9124471 C161.941837,32.5192512 162.302304,32.486393 162.760195,32.780714 C163.478981,33.3386515 164.982252,34.2888332 167.107735,34.2888332 C168.939548,34.2888332 170.442819,33.3716599 170.442819,31.6339844 C170.442819,27.9300788 161.647118,29.0439001 161.647118,23.602319 C161.647118,20.5536732 164.230642,18.9802884 167.239132,18.9802884 C169.592586,18.9802884 171.065081,19.8325469 171.750893,20.3242171 C172.17601,20.5866315 172.241708,20.9798274 171.979864,21.4060318 L171.750893,21.7663695 C171.490098,22.2255322 171.097856,22.2583904 170.639965,21.9959258 C170.017703,21.5697215 168.840926,20.9469693 167.107735,20.9469693 C165.374395,20.9469693 163.871224,21.7010039 163.871224,23.5040952 C163.871224,27.3067756 172.633901,26.0935783 172.633901,31.601026 C172.633901,34.3218416 170.345196,36.256065 167.074811,36.256065 C164.197717,36.256065 162.335078,35.0433687 161.51672,34.3536479 C161.124578,34.0592769 161.091654,33.666081 161.386372,33.2398766" id="Fill-13" fill="#FFFFFF"></path>
            <path d="M176.330462,21.3731486 L174.956539,21.3731486 C174.433949,21.3731486 174.172054,21.1110848 174.172054,20.5866566 L174.172054,20.324192 C174.172054,19.7996136 174.433949,19.5046916 174.956539,19.5046916 L176.363286,19.5046916 L176.363286,15.6366455 C176.363286,15.1121171 176.656906,14.817145 177.180695,14.817145 L177.768933,14.817145 C178.291623,14.817145 178.553418,15.1121171 178.553418,15.6366455 L178.553418,19.5046916 L181.889601,19.5046916 C182.412142,19.5046916 182.706861,19.7996136 182.706861,20.324192 L182.706861,20.5866566 C182.706861,21.1110848 182.412142,21.3731486 181.889601,21.3731486 L178.553418,21.3731486 L178.553418,29.6337691 C178.553418,33.4364996 180.875047,33.8956623 182.150297,33.960477 C182.804434,34.0263937 183.033404,34.2239934 183.033404,34.7798773 L183.033404,35.2060316 C183.033404,35.7311109 182.77151,35.9936255 182.117523,35.9936255 C178.521643,35.9936255 176.330462,33.7978392 176.330462,29.9292421 L176.330462,21.3731486 Z" id="Fill-15" fill="#FFFFFF"></path>
            <path d="M185.323168,20.1928345 C185.323168,19.6684063 185.616838,19.3734343 186.140428,19.3734343 L186.727767,19.3734343 C187.218582,19.3734343 187.513351,19.6684063 187.513351,20.1928345 L187.513351,22.4221302 C187.513351,23.1432565 187.382953,23.7335513 187.382953,23.7335513 L187.448701,23.7335513 C188.233136,21.3401652 190.1286,19.2751102 192.744898,19.2751102 C193.333286,19.2751102 193.595081,19.537675 193.595081,20.0621031 L193.595081,20.6519972 C193.595081,21.1764254 193.235713,21.4713975 192.679199,21.4713975 C189.213717,21.4713975 187.546225,25.4377676 187.546225,28.8802605 L187.546225,35.0433687 C187.546225,35.5673961 187.28433,35.8628691 186.760691,35.8628691 L186.140428,35.8628691 C185.616838,35.8628691 185.323168,35.5673961 185.323168,35.0433687 L185.323168,20.1928345 Z" id="Fill-17" fill="#FFFFFF"></path>
            <path d="M206.674452,25.9952192 C206.544105,22.5203691 204.451546,20.815752 201.99847,20.815752 C199.252723,20.815752 196.865446,22.6517015 196.342856,25.9952192 L206.674452,25.9952192 Z M202.064168,18.9802534 C206.446531,18.9802534 208.931432,22.1601816 208.931432,26.8476279 C208.931432,27.3067906 208.572014,27.6665774 208.081199,27.6665774 L196.244233,27.6665774 C196.342856,31.8625539 199.219949,34.25594 202.620732,34.25594 C204.680516,34.25594 206.183687,33.3386164 206.936397,32.7478207 C207.394288,32.4533996 207.753706,32.5192662 208.015501,32.9454706 L208.276346,33.3386164 C208.506316,33.7319125 208.440617,34.1251585 208.048425,34.4195796 C207.165267,35.0763921 205.204106,36.2560801 202.555033,36.2560801 C197.65093,36.2560801 193.955578,32.7148123 193.955578,27.633569 C193.955578,22.2255473 197.618155,18.9802534 202.064168,18.9802534 L202.064168,18.9802534 Z" id="Fill-19" fill="#FFFFFF"></path>
            <path d="M216.550297,34.3866814 C219.723158,34.3866814 221.585747,31.1089301 221.585747,28.2245249 L221.585747,27.4374819 L220.670915,27.4374819 C218.08844,27.4374819 212.888718,27.535856 212.888718,31.2407133 C212.888718,32.7806889 214.09832,34.3866814 216.550297,34.3866814 M220.637991,25.765723 L221.585747,25.765723 L221.585747,25.2411947 C221.585747,22.0618175 219.853506,20.9798525 217.531877,20.9798525 C215.701163,20.9798525 214.295465,21.6681207 213.542855,22.1271832 C213.085864,22.3567895 212.725447,22.2908729 212.430828,21.8646685 L212.235681,21.5372891 C211.972837,21.1110848 212.038535,20.6848804 212.463652,20.4224159 C213.313835,19.8979877 215.145698,18.9802634 217.696248,18.9802634 C221.618572,18.9802634 223.809803,21.1764504 223.809803,25.3070613 L223.809803,35.0433937 C223.809803,35.5674212 223.549057,35.8628941 223.025318,35.8628941 L222.501679,35.8628941 C221.978989,35.8628941 221.68432,35.5993277 221.68432,35.0433937 L221.68432,33.7319225 C221.68432,32.9783387 221.782893,32.4864181 221.782893,32.4864181 L221.717194,32.4864181 C221.750018,32.4864181 220.245798,36.2560901 216.158104,36.2560901 C213.379534,36.2560901 210.599914,34.6172395 210.599914,31.4363596 C210.599914,26.0605449 217.466228,25.765723 220.637991,25.765723" id="Fill-21" fill="#FFFFFF"></path>
            <path d="M227.799923,20.1928345 C227.799923,19.6684063 228.093593,19.3734343 228.617282,19.3734343 L229.20662,19.3734343 C229.696436,19.3734343 229.991105,19.6684063 229.991105,20.1928345 L229.991105,22.0942499 C229.991105,22.7499604 229.859758,23.2744888 229.859758,23.2744888 L229.925406,23.2744888 C230.742815,21.0451931 233.391938,18.9802884 235.974362,18.9802884 C239.014777,18.9802884 240.584696,20.3900836 241.041638,23.1107991 L241.107336,23.1107991 C242.023218,21.0128359 244.409496,18.9802884 247.157241,18.9802884 C251.145363,18.9802884 252.617858,21.3078079 252.617858,25.372452 L252.617858,35.0433687 C252.617858,35.5673961 252.323139,35.8628691 251.800449,35.8628691 L251.211112,35.8628691 C250.687372,35.8628691 250.393703,35.5673961 250.393703,35.0433687 L250.393703,25.9298886 C250.393703,23.2414804 249.837189,21.0128359 246.862572,21.0128359 C243.559313,21.0128359 241.337306,24.4871852 241.337306,27.8970703 L241.337306,35.0433687 C241.337306,35.5673961 241.074412,35.8628691 240.551872,35.8628691 L239.930609,35.8628691 C239.40697,35.8628691 239.11325,35.5673961 239.11325,35.0433687 L239.11325,25.9298886 C239.11325,23.4381785 238.753882,21.0128359 235.646769,21.0128359 C232.311835,21.0128359 230.024079,24.5530517 230.024079,27.8970703 L230.024079,35.0433687 C230.024079,35.5673961 229.761185,35.8628691 229.238495,35.8628691 L228.617282,35.8628691 C228.093593,35.8628691 227.799923,35.5673961 227.799923,35.0433687 L227.799923,20.1928345 Z" id="Fill-23" fill="#FFFFFF"></path>
            <path d="M48.5397996,11.1670196 C48.5397996,11.1670196 47.7035554,6.92000279 37.5073525,12.8746921 C27.3121987,18.8309341 20.0443489,24.5271659 17.4285006,22.1687918 C14.8096546,19.8083641 6.38785991,42.1190019 7.18473491,45.0522936 C7.62813715,45.4973813 12.345787,45.7824859 18.8535829,40.9292962 C25.3603295,36.0761065 31.7442725,34.8310529 34.226126,37.3221619 C36.7094783,39.8104159 51.4149945,16.9253113 48.5397996,11.1670196" id="Fill-25" fill="#CECECD"></path>
            <g id="Group-29" transform="translate(0.000000, 0.009016)">
                <mask id="mask-2" fill="white">
                    <use xlink:href="#path-1"></use>
                </mask>
                <g id="Clip-28"></g>
                <path d="M7.00730907,8.42267238 C-8.86199442,27.7124135 7.18471993,45.0432876 7.18471993,45.0432876 C12.5938774,15.0892216 40.7875648,3.88999996 40.7875648,3.88999996 C41.2115822,3.94134082 39.7564735,2.95519543 37.0904145,1.96544366 C34.4930516,1.00188825 30.7469398,0.0409374557 26.4692448,0.0409374557 C20.4581094,0.0409374557 13.3983965,1.94185191 7.00730907,8.42267238" id="Fill-27" fill="#FFFFFF" mask="url(#mask-2)"></path>
            </g>
            <path d="M12.3958827,50.1003081 C11.9451862,50.012102 13.57236,51.2572558 16.5364352,52.5013578 C22.8243036,55.1432837 35.1289029,57.7822044 46.3941175,47.7271078 C63.4545867,29.4876255 48.5397846,11.1669996 48.5397846,11.1669996 C41.2428077,40.7180023 12.3958827,50.1003081 12.3958827,50.1003081" id="Fill-30" fill="#FFFFFF"></path>
        </g>
    </g>
</svg>